<svg width="24" height="25" viewBox="0 0 24 25" fill="none" xmlns="http://www.w3.org/2000/svg">
<path d="M6.99805 0.966309C3.13905 0.966309 0 4.09517 0 7.93909V17.8974C0 21.7404 3.14195 24.8663 7.00195 24.8663H17.002C20.861 24.8663 24 21.7375 24 17.8935V7.9352C24 4.09228 20.858 0.966309 16.998 0.966309H6.99805ZM19 4.94965C19.552 4.94965 20 5.39578 20 5.94548C20 6.49518 19.552 6.94132 19 6.94132C18.448 6.94132 18 6.49518 18 5.94548C18 5.39578 18.448 4.94965 19 4.94965ZM12 6.94132C15.309 6.94132 18 9.62111 18 12.9163C18 16.2115 15.309 18.8913 12 18.8913C8.691 18.8913 6 16.2115 6 12.9163C6 9.62111 8.691 6.94132 12 6.94132ZM12 8.93298C10.9391 8.93298 9.92172 9.35266 9.17157 10.0997C8.42143 10.8467 8 11.8599 8 12.9163C8 13.9728 8.42143 14.9859 9.17157 15.733C9.92172 16.48 10.9391 16.8997 12 16.8997C13.0609 16.8997 14.0783 16.48 14.8284 15.733C15.5786 14.9859 16 13.9728 16 12.9163C16 11.8599 15.5786 10.8467 14.8284 10.0997C14.0783 9.35266 13.0609 8.93298 12 8.93298Z" fill="#767575"/>
</svg>
