<svg width="168" height="18" viewBox="0 0 168 18" fill="none" xmlns="http://www.w3.org/2000/svg">
<path d="M26.52 17V0.199999H28.488L36.024 12.896H34.968L42.408 0.199999H44.376L44.4 17H42.096L42.072 3.824H42.624L36 14.96H34.896L28.224 3.824H28.824V17H26.52ZM51.6259 7.448H60.2659V9.488H51.6259V7.448ZM51.8419 14.912H61.6339V17H49.4419V0.199999H61.2979V2.288H51.8419V14.912ZM65.52 17V0.199999H67.488L78.6 14H77.568V0.199999H79.968V17H78L66.888 3.2H67.92V17H65.52ZM89.8926 17.192C88.6126 17.192 87.3886 17 86.2206 16.616C85.0526 16.216 84.1326 15.704 83.4606 15.08L84.3486 13.208C84.9886 13.768 85.8046 14.232 86.7966 14.6C87.7886 14.968 88.8206 15.152 89.8926 15.152C90.8686 15.152 91.6606 15.04 92.2686 14.816C92.8766 14.592 93.3246 14.288 93.6126 13.904C93.9006 13.504 94.0446 13.056 94.0446 12.56C94.0446 11.984 93.8526 11.52 93.4686 11.168C93.1006 10.816 92.6126 10.536 92.0046 10.328C91.4126 10.104 90.7566 9.912 90.0366 9.752C89.3166 9.592 88.5886 9.408 87.8526 9.2C87.1326 8.976 86.4686 8.696 85.8606 8.36C85.2686 8.024 84.7886 7.576 84.4206 7.016C84.0526 6.44 83.8686 5.704 83.8686 4.808C83.8686 3.944 84.0926 3.152 84.5406 2.432C85.0046 1.696 85.7086 1.112 86.6526 0.68C87.6126 0.232 88.8286 0.0079999 90.3006 0.0079999C91.2766 0.0079999 92.2446 0.136 93.2046 0.391999C94.1646 0.647999 94.9966 1.016 95.7006 1.496L94.9086 3.416C94.1886 2.936 93.4286 2.592 92.6286 2.384C91.8286 2.16 91.0526 2.048 90.3006 2.048C89.3566 2.048 88.5806 2.168 87.9726 2.408C87.3646 2.648 86.9166 2.968 86.6286 3.368C86.3566 3.768 86.2206 4.216 86.2206 4.712C86.2206 5.304 86.4046 5.776 86.7726 6.128C87.1566 6.48 87.6446 6.76 88.2366 6.968C88.8446 7.176 89.5086 7.368 90.2286 7.544C90.9486 7.704 91.6686 7.888 92.3886 8.096C93.1246 8.304 93.7886 8.576 94.3806 8.912C94.9886 9.248 95.4766 9.696 95.8446 10.256C96.2126 10.816 96.3966 11.536 96.3966 12.416C96.3966 13.264 96.1646 14.056 95.7006 14.792C95.2366 15.512 94.5166 16.096 93.5406 16.544C92.5806 16.976 91.3646 17.192 89.8926 17.192ZM107.415 17.192C106.135 17.192 104.951 16.984 103.863 16.568C102.791 16.136 101.855 15.536 101.055 14.768C100.271 13.984 99.6548 13.072 99.2068 12.032C98.7588 10.992 98.5348 9.848 98.5348 8.6C98.5348 7.352 98.7588 6.208 99.2068 5.168C99.6548 4.128 100.279 3.224 101.079 2.456C101.879 1.672 102.815 1.072 103.887 0.655999C104.975 0.224 106.159 0.0079999 107.439 0.0079999C108.735 0.0079999 109.927 0.232 111.015 0.68C112.119 1.112 113.055 1.76 113.823 2.624L112.263 4.136C111.623 3.464 110.903 2.968 110.103 2.648C109.303 2.312 108.447 2.144 107.535 2.144C106.591 2.144 105.711 2.304 104.895 2.624C104.095 2.944 103.399 3.392 102.807 3.968C102.215 4.544 101.751 5.232 101.415 6.032C101.095 6.816 100.935 7.672 100.935 8.6C100.935 9.528 101.095 10.392 101.415 11.192C101.751 11.976 102.215 12.656 102.807 13.232C103.399 13.808 104.095 14.256 104.895 14.576C105.711 14.896 106.591 15.056 107.535 15.056C108.447 15.056 109.303 14.896 110.103 14.576C110.903 14.24 111.623 13.728 112.263 13.04L113.823 14.552C113.055 15.416 112.119 16.072 111.015 16.52C109.927 16.968 108.727 17.192 107.415 17.192ZM117.247 17V0.199999H119.647V14.912H128.743V17H117.247ZM138.175 17.192C135.967 17.192 134.231 16.56 132.967 15.296C131.703 14.032 131.071 12.184 131.071 9.752V0.199999H133.471V9.656C133.471 11.528 133.879 12.896 134.695 13.76C135.527 14.624 136.695 15.056 138.199 15.056C139.719 15.056 140.887 14.624 141.703 13.76C142.535 12.896 142.951 11.528 142.951 9.656V0.199999H145.279V9.752C145.279 12.184 144.647 14.032 143.383 15.296C142.135 16.56 140.399 17.192 138.175 17.192ZM150.2 17V0.199999H157.736C159.672 0.199999 161.16 0.591999 162.2 1.376C163.24 2.144 163.76 3.2 163.76 4.544C163.76 5.456 163.552 6.224 163.136 6.848C162.736 7.472 162.192 7.952 161.504 8.288C160.816 8.624 160.072 8.792 159.272 8.792L159.704 8.072C160.664 8.072 161.512 8.24 162.248 8.576C162.984 8.912 163.568 9.408 164 10.064C164.432 10.704 164.648 11.504 164.648 12.464C164.648 13.904 164.104 15.024 163.016 15.824C161.944 16.608 160.344 17 158.216 17H150.2ZM152.6 15.056H158.12C159.448 15.056 160.464 14.832 161.168 14.384C161.872 13.936 162.224 13.232 162.224 12.272C162.224 11.296 161.872 10.584 161.168 10.136C160.464 9.688 159.448 9.464 158.12 9.464H152.384V7.52H157.52C158.736 7.52 159.68 7.296 160.352 6.848C161.024 6.4 161.36 5.728 161.36 4.832C161.36 3.936 161.024 3.264 160.352 2.816C159.68 2.368 158.736 2.144 157.52 2.144H152.6V15.056Z" fill="white"/>
<path d="M0 0V17H17V0H0ZM15.5716 16.1625H10.4046V10.996L15.5716 16.1625ZM8.5 7.90895L1.42836 0.836191H15.5716L8.5 7.90895ZM9.56857 10.158V16.1625H5.89873V6.49161L9.56857 10.158ZM9.09095 8.4982L16.1626 1.42724V15.5728L9.09095 8.4982ZM0.837407 16.1625V1.42724L5.06492 5.65542V16.1625H0.837407Z" fill="white"/>
</svg>
