<svg width="85" height="16" viewBox="0 0 85 16" fill="none" xmlns="http://www.w3.org/2000/svg">
<path d="M3.64062 13.875L4.65625 9.48438L1.25 6.53125L5.75 6.14062L7.5 2L9.25 6.14062L13.75 6.53125L10.3438 9.48438L11.3594 13.875L7.5 11.5469L3.64062 13.875Z" fill="#F4AE26"/>
<path d="M21.1405 13.875L22.1561 9.48438L18.7499 6.53125L23.2499 6.14062L24.9999 2L26.7499 6.14062L31.2499 6.53125L27.8436 9.48438L28.8593 13.875L24.9999 11.5469L21.1405 13.875Z" fill="#F4AE26"/>
<path d="M38.6406 13.875L39.6562 9.48438L36.25 6.53125L40.75 6.14062L42.5 2L44.25 6.14062L48.75 6.53125L45.3438 9.48438L46.3594 13.875L42.5 11.5469L38.6406 13.875Z" fill="#F4AE26"/>
<path d="M56.1406 13.875L57.1562 9.48438L53.75 6.53125L58.25 6.14062L60 2L61.75 6.14062L66.25 6.53125L62.8438 9.48438L63.8594 13.875L60 11.5469L56.1406 13.875Z" fill="#F4AE26"/>
<path d="M73.6405 13.875L74.6561 9.48438L71.2499 6.53125L75.7499 6.14062L77.4999 2L79.2499 6.14062L83.7499 6.53125L80.3436 9.48438L81.3593 13.875L77.4999 11.5469L73.6405 13.875Z" fill="#F4AE26"/>
</svg>
