<svg width="640" height="266" viewBox="0 0 640 266" fill="none" xmlns="http://www.w3.org/2000/svg">
<g opacity="0.5">
<path d="M266.849 195.92L297.383 177.638L327.918 196.114L319.749 161.496L346.588 138.157L311.192 135.046L297.383 102.372L283.575 134.851L248.178 137.963L275.017 161.301L266.849 195.92ZM249.345 220.231L261.987 165.58L219.589 128.822L275.601 123.96L297.383 72.4211L319.166 123.96L375.178 128.822L332.78 165.58L345.421 220.231L297.383 191.252L249.345 220.231Z" fill="black"/>
</g>
<g opacity="0.5">
<path d="M467.992 195.92L498.526 177.638L529.061 196.114L520.892 161.496L547.731 138.157L512.335 135.046L498.526 102.372L484.718 134.851L449.321 137.963L476.16 161.301L467.992 195.92ZM450.488 220.231L463.13 165.58L420.732 128.822L476.744 123.96L498.526 72.4211L520.309 123.96L576.321 128.822L533.923 165.58L546.564 220.231L498.526 191.252L450.488 220.231Z" fill="black"/>
</g>
<g opacity="0.5">
<path d="M65.7062 195.92L96.2405 177.638L126.775 196.114L118.606 161.496L145.446 138.157L110.049 135.046L96.2405 102.372L82.432 134.851L47.0355 137.963L73.8746 161.301L65.7062 195.92ZM48.2024 220.231L60.844 165.58L18.446 128.822L74.4581 123.96L96.2405 72.4211L118.023 123.96L174.035 128.822L131.637 165.58L144.279 220.231L96.2405 191.252L48.2024 220.231Z" fill="black"/>
</g>
<rect width="640" height="265.624" fill="url(#paint0_linear_315_15)"/>
<defs>
<linearGradient id="paint0_linear_315_15" x1="320" y1="0" x2="320" y2="265.624" gradientUnits="userSpaceOnUse">
<stop stop-color="#EDEDED" stop-opacity="0.2"/>
<stop offset="0.669792" stop-color="#EDEDED"/>
</linearGradient>
</defs>
</svg>
