<svg width="24" height="19" viewBox="0 0 24 19" fill="none" xmlns="http://www.w3.org/2000/svg">
<path d="M23.3301 4.00363C23.1082 2.78416 22.0511 1.89608 20.8244 1.61883C18.9886 1.23111 15.5911 0.953857 11.9152 0.953857C8.24143 0.953857 4.78956 1.23111 2.9516 1.61883C1.72703 1.89608 0.667754 2.72784 0.445894 4.00363C0.22186 5.3899 0 7.33066 0 9.82594C0 12.3212 0.22186 14.262 0.500272 15.6482C0.724307 16.8677 1.7814 17.7558 3.00598 18.033C4.95487 18.4208 8.29581 18.698 11.9717 18.698C15.6476 18.698 18.9886 18.4208 20.9375 18.033C22.162 17.7558 23.2191 16.924 23.4432 15.6482C23.665 14.262 23.9434 12.2649 24 9.82594C23.8869 7.33066 23.6085 5.3899 23.3301 4.00363ZM8.90919 13.7075V5.9444L15.702 9.82594L8.90919 13.7075Z" fill="#767575"/>
</svg>
